<svg width="128" height="128" viewBox="0 0 128 128" xmlns="http://www.w3.org/2000/svg" xmlns:xlink="http://www.w3.org/1999/xlink"><title>Ball</title><defs><circle id="a" cx="59" cy="59" r="59"/><path d="M96.515 13.46C86.32 5.05 73.25 0 59 0 26.415 0 0 26.415 0 59c0 3.053.232 6.052.68 8.98C11.01 77.9 25.043 84 40.5 84 72.256 84 98 58.256 98 26.5c0-4.485-.513-8.85-1.485-13.04z" id="b"/></defs><g transform="translate(5 5)" fill="none" fill-rule="evenodd"><use stroke="#790909" stroke-width="5" xlink:href="#a"/><use fill="#D11818" xlink:href="#a"/><use fill="#D55050" xlink:href="#b"/><use xlink:href="#b"/><g fill="#8B1B1B"><path d="M20.776 103.432c.6.688 1.217 1.363 1.848 2.023-.718-.563-1.422-1.142-2.113-1.737.09-.095.178-.19.266-.286zm91.122-70.592C113.912 39.03 115 45.638 115 52.5c0 35.07-28.43 63.5-63.5 63.5-3.73 0-7.386-.322-10.94-.94 5.802 1.908 12 2.94 18.44 2.94 32.585 0 59-26.415 59-59 0-9.395-2.196-18.277-6.102-26.16z"/></g><ellipse fill="#ED9292" transform="rotate(-31 30.5 24)" cx="30.5" cy="24" rx="18.5" ry="7"/></g></svg>