<?xml version="1.0" encoding="UTF-8" standalone="no"?>
<svg width="128px" height="128px" viewBox="0 0 128 128" version="1.1" xmlns="http://www.w3.org/2000/svg" xmlns:xlink="http://www.w3.org/1999/xlink" xmlns:sketch="http://www.bohemiancoding.com/sketch/ns">
    <!-- Generator: Sketch 3.5.1 (25234) - http://www.bohemiancoding.com/sketch -->
    <title>bullet2</title>
    <desc>Created with Sketch.</desc>
    <defs>
        <circle id="path-1" cx="59" cy="59" r="59"></circle>
        <path d="M96.5152526,13.4609949 C86.3186425,5.05133422 73.2492224,0 59,0 C26.4151998,0 5.68434189e-14,26.4151998 5.68434189e-14,59 C5.68434189e-14,62.0528428 0.231863647,65.051531 0.678941532,67.9794151 C11.0115828,77.9014759 25.0435981,84 40.5,84 C72.2563731,84 98,58.2563731 98,26.5 C98,22.0152196 97.4865593,17.6503596 96.5152526,13.4609949 Z" id="path-2"></path>
    </defs>
    <g id="Page-1" stroke="none" stroke-width="1" fill="none" fill-rule="evenodd" sketch:type="MSPage">
        <g id="bullet2" sketch:type="MSLayerGroup" transform="translate(5.000000, 5.000000)">
            <g id="Oval-1">
                <use stroke="#790909" stroke-width="5" fill="none" sketch:type="MSShapeGroup" xlink:href="#path-1"></use>
                <use stroke="none" fill="#D11818" fill-rule="evenodd" xlink:href="#path-1"></use>
            </g>
            <g id="Oval-1">
                <use fill="#D55050" fill-rule="evenodd" sketch:type="MSShapeGroup" xlink:href="#path-2"></use>
                <use fill="none" xlink:href="#path-2"></use>
            </g>
            <g id="Group-5" transform="translate(20.000000, 32.000000)" fill="#8B1B1B" sketch:type="MSShapeGroup">
                <path d="M0.775859189,71.4319703 C1.376664,72.1204535 1.9929346,72.7950911 2.62412935,73.4553415 C1.90624555,72.8924289 1.20173685,72.3132364 0.511159085,71.71832 C0.599295198,71.622797 0.687531085,71.5273486 0.775859189,71.4319703 Z M91.8978174,0.839581082 C93.9115272,7.03000377 95,13.6378887 95,20.5 C95,55.5700816 66.5700816,84 31.5,84 C27.7694562,84 24.1140487,83.6783035 20.560005,83.0611381 C26.3615178,84.9682879 32.5602743,86 39,86 C71.5848002,86 98,59.5848002 98,27 C98,17.6052633 95.8041989,8.72338345 91.8978174,0.839581082 Z" id="Oval-12"></path>
            </g>
            <ellipse id="Oval-34" fill="#ED9292" sketch:type="MSShapeGroup" transform="translate(30.500000, 24.000000) rotate(-31.000000) translate(-30.500000, -24.000000) " cx="30.5" cy="24" rx="18.5" ry="7"></ellipse>
        </g>
    </g>
</svg>