<svg width="500" height="50" viewBox="0 0 500 50" xmlns="http://www.w3.org/2000/svg"><title>Paddle</title><g fill="none" fill-rule="evenodd"><rect fill="#5F5F5F" width="500" height="50" rx="44"/><path d="M497.92 35c-3.857 8.83-12.668 15-22.93 15H25.01C14.752 50 5.94 43.83 2.08 35h495.84z" fill="#3F3E3E"/><path d="M3.64 12C8.03 4.804 15.956 0 25.01 0h449.98c9.05 0 16.977 4.803 21.368 12H3.64z" fill="#717171"/><path d="M96 0H25.01C11.19 0 0 11.193 0 25c0 13.81 11.197 25 25.01 25H96V0zM404 0h70.99C488.81 0 500 11.193 500 25c0 13.81-11.197 25-25.01 25H404V0z" fill-opacity=".5" fill="#0159FF"/></g></svg>