<?xml version="1.0" encoding="UTF-8" standalone="no"?>
<svg width="500px" height="50px" viewBox="0 0 500 50" version="1.1" xmlns="http://www.w3.org/2000/svg" xmlns:xlink="http://www.w3.org/1999/xlink" xmlns:sketch="http://www.bohemiancoding.com/sketch/ns">
    <!-- Generator: Sketch 3.5.1 (25234) - http://www.bohemiancoding.com/sketch -->
    <title>Group 6</title>
    <desc>Created with Sketch.</desc>
    <defs></defs>
    <g id="Page-1" stroke="none" stroke-width="1" fill="none" fill-rule="evenodd" sketch:type="MSPage">
        <g id="Group-6" sketch:type="MSLayerGroup">
            <rect id="Rectangle-29" fill="#5F5F5F" sketch:type="MSShapeGroup" x="0" y="0" width="500" height="50" rx="44"></rect>
            <path d="M497.920235,35.0000007 C494.062975,43.8295242 485.252334,50 474.991006,50 L25.0089937,50 C14.7532103,50 5.93927786,43.8305957 2.08040206,35.0000007 L497.92024,35 Z" id="Rectangle-29" fill="#3F3E3E" sketch:type="MSShapeGroup"></path>
            <path d="M3.64101709,12 C8.03006744,4.80408153 15.954808,0 25.0089937,0 L474.991006,0 C484.040424,0 491.967244,4.80337837 496.357903,12 L3.64101709,12 Z" id="Rectangle-29" fill="#717171" sketch:type="MSShapeGroup"></path>
            <path d="M96,0 L25.0089937,0 C11.1887672,0 0,11.1928813 0,25 C0,38.8101546 11.1969079,50 25.0089937,50 L96,50 L96,8.8817842e-16 Z" id="Rectangle-29" fill-opacity="0.5" fill="#0159FF" sketch:type="MSShapeGroup"></path>
            <path d="M500,0 L429.008994,0 C415.188767,0 404,11.1928813 404,25 C404,38.8101546 415.196908,50 429.008994,50 L500,50 L500,8.8817842e-16 Z" id="Rectangle-29" fill-opacity="0.5" fill="#0159FF" sketch:type="MSShapeGroup" transform="translate(452.000000, 25.000000) scale(-1, 1) translate(-452.000000, -25.000000) "></path>
        </g>
    </g>
</svg>