<?xml version="1.0" encoding="UTF-8" standalone="no"?>
<svg width="156px" height="51px" viewBox="0 0 156 51" version="1.1" xmlns="http://www.w3.org/2000/svg" xmlns:xlink="http://www.w3.org/1999/xlink" xmlns:sketch="http://www.bohemiancoding.com/sketch/ns">
    <!-- Generator: Sketch 3.5.1 (25234) - http://www.bohemiancoding.com/sketch -->
    <title>Play</title>
    <desc>Created with Sketch.</desc>
    <defs></defs>
    <g id="Page-1" stroke="none" stroke-width="1" fill="none" fill-rule="evenodd" sketch:type="MSPage">
        <path d="M16.648,13.272 L22.912,13.272 L22.912,22.704 L16.648,22.704 L16.648,13.272 Z M32.344,35.304 C36.088,35.304 38.68,32.64 38.68,28.968 L38.68,6.864 C38.68,3.192 36.088,0.6 32.344,0.6 L0.88,0.6 L0.88,51 L16.648,51 L16.648,35.304 L32.344,35.304 Z M43.72,51 L75.256,51 L75.256,38.4 L59.416,38.4 L59.416,0.6 L43.72,0.6 L43.72,51 Z M95.272,28.248 L96.712,13.272 L98.44,13.272 L99.88,28.248 L95.272,28.248 Z M84.472,0.6 L77.416,44.736 L77.416,51 L93.112,51 L94.12,40.848 L101.032,40.848 L101.968,51 L117.736,51 L117.736,44.736 L110.68,0.6 L84.472,0.6 Z M127.888,37.248 L127.888,51 L143.584,51 L143.584,37.248 L155.896,6.864 L155.896,0.6 L140.2,0.6 L136.312,20.184 L135.16,20.184 L131.344,0.6 L115.576,0.6 L115.576,6.864 L127.888,37.248 Z" id="Play" fill="#FFFFFF" sketch:type="MSShapeGroup"></path>
    </g>
</svg>