<svg width="156" height="51" viewBox="0 0 156 51" xmlns="http://www.w3.org/2000/svg"><title>Play</title><path d="M16.648 13.272h6.264v9.432h-6.264v-9.432zm15.696 22.032c3.744 0 6.336-2.664 6.336-6.336V6.864C38.68 3.192 36.088.6 32.344.6H.88V51h15.768V35.304h15.696zM43.72 51h31.536V38.4h-15.84V.6H43.72V51zm51.552-22.752l1.44-14.976h1.728l1.44 14.976h-4.608zM84.472.6l-7.056 44.136V51h15.696l1.008-10.152h6.912L101.968 51h15.768v-6.264L110.68.6H84.472zm43.416 36.648V51h15.696V37.248l12.312-30.384V.6H140.2l-3.888 19.584h-1.152L131.344.6h-15.768v6.264l12.312 30.384z" fill="#FFF" fill-rule="evenodd"/></svg>