<?xml version="1.0" encoding="UTF-8" standalone="no"?>
<svg width="425px" height="54px" viewBox="0 0 425 54" version="1.1" xmlns="http://www.w3.org/2000/svg" xmlns:xlink="http://www.w3.org/1999/xlink" xmlns:sketch="http://www.bohemiancoding.com/sketch/ns">
    <!-- Generator: Sketch 3.5.1 (25234) - http://www.bohemiancoding.com/sketch -->
    <title>SITEBREAKER</title>
    <desc>Created with Sketch.</desc>
    <defs>
        <filter x="-50%" y="-50%" width="200%" height="200%" filterUnits="objectBoundingBox" id="filter-1">
            <feOffset dx="3" dy="3" in="SourceAlpha" result="shadowOffsetOuter1"></feOffset>
            <feGaussianBlur stdDeviation="0" in="shadowOffsetOuter1" result="shadowBlurOuter1"></feGaussianBlur>
            <feColorMatrix values="0 0 0 0 0   0 0 0 0 0   0 0 0 0 0  0 0 0 0.7 0" in="shadowBlurOuter1" type="matrix" result="shadowMatrixOuter1"></feColorMatrix>
            <feMerge>
                <feMergeNode in="shadowMatrixOuter1"></feMergeNode>
                <feMergeNode in="SourceGraphic"></feMergeNode>
            </feMerge>
        </filter>
    </defs>
    <g id="Page-1" stroke="none" stroke-width="1" fill="none" fill-rule="evenodd" sketch:type="MSPage">
        <path d="M4.688,26.016 L18.368,35.088 L18.368,38.4 L0.44,38.4 L0.44,51 L27.872,51 C31.544,51 34.136,48.408 34.136,44.736 L34.136,33.288 C34.136,29.256 33.344,27.024 29.888,24.72 L16.208,15.576 L16.208,13.272 L31.688,13.272 L34.136,6.792 L34.136,0.6 L6.776,0.6 C3.032,0.6 0.44,3.192 0.44,6.864 L0.44,17.448 C0.44,21.48 1.232,23.64 4.688,26.016 L4.688,26.016 Z M54.152,51 L54.152,0.6 L38.456,0.6 L38.456,51 L54.152,51 Z M67.184,13.272 L67.184,51 L82.952,51 L82.952,13.272 L90.512,13.272 L93.032,6.864 L93.032,0.6 L57.752,0.6 L57.752,13.272 L67.184,13.272 Z M130.328,51 L130.328,38.4 L112.328,38.4 L112.328,31.488 L127.808,31.488 L127.808,18.888 L112.328,18.888 L112.328,13.272 L127.808,13.272 L130.328,6.864 L130.328,0.6 L96.632,0.6 L96.632,51 L130.328,51 Z M150.416,31.488 L156.68,31.488 L156.68,38.4 L150.416,38.4 L150.416,31.488 Z M156.68,18.888 L150.416,18.888 L150.416,13.272 L156.68,13.272 L156.68,18.888 Z M166.112,51 C169.856,51 172.448,48.408 172.448,44.736 L172.448,31.992 C172.448,28.248 169.424,25.872 165.968,25.872 L165.968,24.504 C169.424,24.504 172.448,22.128 172.448,18.456 L172.448,6.864 C172.448,3.192 169.856,0.6 166.112,0.6 L134.648,0.6 L134.648,51 L166.112,51 Z M199.52,13.272 L199.52,22.704 L193.256,22.704 L193.256,13.272 L199.52,13.272 Z M177.488,0.6 L177.488,51 L193.256,51 L193.256,35.304 L196.424,35.304 L200.672,51 L216.08,51 L216.08,44.736 L211.112,32.352 C213.488,31.704 215.288,29.04 215.288,26.664 L215.288,6.864 C215.288,3.192 212.696,0.6 209.024,0.6 L177.488,0.6 Z M254.096,51 L254.096,38.4 L236.096,38.4 L236.096,31.488 L251.576,31.488 L251.576,18.888 L236.096,18.888 L236.096,13.272 L251.576,13.272 L254.096,6.864 L254.096,0.6 L220.4,0.6 L220.4,51 L254.096,51 Z M274.832,28.248 L276.272,13.272 L278,13.272 L279.44,28.248 L274.832,28.248 Z M264.032,0.6 L256.976,44.736 L256.976,51 L272.672,51 L273.68,40.848 L280.592,40.848 L281.528,51 L297.296,51 L297.296,44.736 L290.24,0.6 L264.032,0.6 Z M320.192,18.888 L317.312,18.888 L317.312,0.6 L301.616,0.6 L301.616,51 L317.312,51 L317.312,31.488 L320.192,31.488 L324.44,51 L340.136,51 L340.136,44.736 L333.08,24.36 L338.912,6.864 L338.912,0.6 L323.936,0.6 L320.192,18.888 Z M378.152,51 L378.152,38.4 L360.152,38.4 L360.152,31.488 L375.632,31.488 L375.632,18.888 L360.152,18.888 L360.152,13.272 L375.632,13.272 L378.152,6.864 L378.152,0.6 L344.456,0.6 L344.456,51 L378.152,51 Z M404.504,13.272 L404.504,22.704 L398.24,22.704 L398.24,13.272 L404.504,13.272 Z M382.472,0.6 L382.472,51 L398.24,51 L398.24,35.304 L401.408,35.304 L405.656,51 L421.064,51 L421.064,44.736 L416.096,32.352 C418.472,31.704 420.272,29.04 420.272,26.664 L420.272,6.864 C420.272,3.192 417.68,0.6 414.008,0.6 L382.472,0.6 Z" id="SITEBREAKER" fill="#EC802F" filter="url(#filter-1)" sketch:type="MSShapeGroup"></path>
    </g>
</svg>