<svg width="425" height="54" viewBox="0 0 425 54" xmlns="http://www.w3.org/2000/svg"><title>SITEBREAKER</title><defs><filter x="-50%" y="-50%" width="200%" height="200%" filterUnits="objectBoundingBox" id="a"><feOffset dx="3" dy="3" in="SourceAlpha" result="shadowOffsetOuter1"/><feGaussianBlur in="shadowOffsetOuter1" result="shadowBlurOuter1"/><feColorMatrix values="0 0 0 0 0 0 0 0 0 0 0 0 0 0 0 0 0 0 0.7 0" in="shadowBlurOuter1" result="shadowMatrixOuter1"/><feMerge><feMergeNode in="shadowMatrixOuter1"/><feMergeNode in="SourceGraphic"/></feMerge></filter></defs><path d="M4.688 26.016l13.68 9.072V38.4H.44V51h27.432c3.672 0 6.264-2.592 6.264-6.264V33.288c0-4.032-.792-6.264-4.248-8.568l-13.68-9.144v-2.304h15.48l2.448-6.48V.6H6.776C3.032.6.44 3.192.44 6.864v10.584c0 4.032.792 6.192 4.248 8.568zM54.152 51V.6H38.456V51h15.696zm13.032-37.728V51h15.768V13.272h7.56l2.52-6.408V.6h-35.28v12.672h9.432zM130.328 51V38.4h-18v-6.912h15.48v-12.6h-15.48v-5.616h15.48l2.52-6.408V.6H96.632V51h33.696zm20.088-19.512h6.264V38.4h-6.264v-6.912zm6.264-12.6h-6.264v-5.616h6.264v5.616zM166.112 51c3.744 0 6.336-2.592 6.336-6.264V31.992c0-3.744-3.024-6.12-6.48-6.12v-1.368c3.456 0 6.48-2.376 6.48-6.048V6.864c0-3.672-2.592-6.264-6.336-6.264h-31.464V51h31.464zm33.408-37.728v9.432h-6.264v-9.432h6.264zM177.488.6V51h15.768V35.304h3.168L200.672 51h15.408v-6.264l-4.968-12.384c2.376-.648 4.176-3.312 4.176-5.688v-19.8c0-3.672-2.592-6.264-6.264-6.264h-31.536zM254.096 51V38.4h-18v-6.912h15.48v-12.6h-15.48v-5.616h15.48l2.52-6.408V.6H220.4V51h33.696zm20.736-22.752l1.44-14.976H278l1.44 14.976h-4.608zM264.032.6l-7.056 44.136V51h15.696l1.008-10.152h6.912L281.528 51h15.768v-6.264L290.24.6h-26.208zm56.16 18.288h-2.88V.6h-15.696V51h15.696V31.488h2.88L324.44 51h15.696v-6.264L333.08 24.36l5.832-17.496V.6h-14.976l-3.744 18.288zM378.152 51V38.4h-18v-6.912h15.48v-12.6h-15.48v-5.616h15.48l2.52-6.408V.6h-33.696V51h33.696zm26.352-37.728v9.432h-6.264v-9.432h6.264zM382.472.6V51h15.768V35.304h3.168L405.656 51h15.408v-6.264l-4.968-12.384c2.376-.648 4.176-3.312 4.176-5.688v-19.8c0-3.672-2.592-6.264-6.264-6.264h-31.536z" fill="#EC802F" filter="url(#a)" fill-rule="evenodd"/></svg>