<svg width="434" height="279" viewBox="0 0 434 279" xmlns="http://www.w3.org/2000/svg"><title>Block</title><g transform="translate(9 5)" fill="none" fill-rule="evenodd"><path d="M302 112.434V185H117v-9.808L0 235.095v-103L258 0v44V0l163 34.947v103l-119-25.513z" fill="#82E5BF"/><path d="M117 183.625v-8.433L99.796 184H99.5c-36.413 0-70.464-4.832-99.5-13.227v-38.678L219.11 19.91c14.92 5.663 28.042 12.36 38.89 19.866V44v-4.224C279.442 54.61 292 72.606 292 92c0 47.99-76.886 87.4-175 91.625z" fill="#8EE4C3"/><path d="M163 166.947v103L0 235V132l163 34.947z" fill="#86BBA7"/><path d="M103.323 257.153L0 235V132l134.808 28.903C138.19 169.673 140 178.93 140 188.5c0 26.546-13.927 50.687-36.677 68.653z" fill="#8FC6B1"/><path d="M163 269.947l258-132.095v-103L163 166.947v103z" fill="#75BEA2"/><path d="M421 86.4V34.852L258 0 .13 132.028 0 183.548v51.547l163 34.852L420.87 137.92 421 86.4z" stroke="#3EC28F" stroke-width="5"/><ellipse fill-opacity=".56" fill="#BFEFA3" transform="rotate(-13 134.46 96.103)" cx="134.459" cy="96.103" rx="44" ry="11.5"/></g></svg>