<svg width="132" height="132" viewBox="0 0 132 132" xmlns="http://www.w3.org/2000/svg" xmlns:xlink="http://www.w3.org/1999/xlink"><title>Star</title><defs><path id="a" d="M61 84.5L33.374 99.024l5.276-30.762L16.3 46.476l30.887-4.488L61 14l13.813 27.988 30.887 4.488-22.35 21.786 5.276 30.762z"/><path d="M34.22 63.943L16.3 46.476l30.887-4.488L61 14l8.673 17.573c-5.382 15.003-18.585 27-35.454 32.37z" id="b"/></defs><g transform="translate(5 5)" fill="none" fill-rule="evenodd"><circle stroke="#DA8E00" stroke-width="5" fill="#FFC42D" cx="61" cy="61" r="61"/><path d="M80.59 3.214C104.67 11.374 122 34.164 122 61c0 33.69-27.31 61-61 61-26.837 0-49.626-17.33-57.786-41.41A72.852 72.852 0 0 1 3 75C3 35.235 35.235 3 75 3c1.88 0 3.745.072 5.59.214z" fill="#FFBE2D"/><use stroke="#DA8E00" stroke-width="3" fill="#FFB62D" xlink:href="#a"/><use xlink:href="#a"/><use fill="#FFC42D" xlink:href="#b"/><use xlink:href="#b"/></g></svg>